<svg width="88" height="18" viewBox="0 0 88 18" fill="none" xmlns="http://www.w3.org/2000/svg">
    <path d="M10.112 17L4.016 9.536V17H0.656V0.248H4.016V7.76L10.112 0.248H14.168L7.256 8.552L14.36 17H10.112ZM24.3461 17.168C22.7781 17.168 21.3381 16.8 20.0261 16.064C18.7141 15.328 17.6741 14.312 16.9061 13.016C16.1381 11.704 15.7541 10.224 15.7541 8.576C15.7541 6.944 16.1381 5.48 16.9061 4.184C17.6741 2.872 18.7141 1.848 20.0261 1.112C21.3381 0.375999 22.7781 0.0079999 24.3461 0.0079999C25.9301 0.0079999 27.3701 0.375999 28.6661 1.112C29.9781 1.848 31.0101 2.872 31.7621 4.184C32.5301 5.48 32.9141 6.944 32.9141 8.576C32.9141 10.224 32.5301 11.704 31.7621 13.016C31.0101 14.312 29.9781 15.328 28.6661 16.064C27.3541 16.8 25.9141 17.168 24.3461 17.168ZM24.3461 14.168C25.3541 14.168 26.2421 13.944 27.0101 13.496C27.7781 13.032 28.3781 12.376 28.8101 11.528C29.2421 10.68 29.4581 9.696 29.4581 8.576C29.4581 7.456 29.2421 6.48 28.8101 5.648C28.3781 4.8 27.7781 4.152 27.0101 3.704C26.2421 3.256 25.3541 3.032 24.3461 3.032C23.3381 3.032 22.4421 3.256 21.6581 3.704C20.8901 4.152 20.2901 4.8 19.8581 5.648C19.4261 6.48 19.2101 7.456 19.2101 8.576C19.2101 9.696 19.4261 10.68 19.8581 11.528C20.2901 12.376 20.8901 13.032 21.6581 13.496C22.4421 13.944 23.3381 14.168 24.3461 14.168ZM41.1978 17.168C40.0298 17.168 38.9738 16.968 38.0298 16.568C37.1018 16.168 36.3658 15.592 35.8218 14.84C35.2778 14.088 34.9978 13.2 34.9818 12.176H38.5818C38.6298 12.864 38.8698 13.408 39.3018 13.808C39.7498 14.208 40.3578 14.408 41.1258 14.408C41.9098 14.408 42.5258 14.224 42.9738 13.856C43.4218 13.472 43.6458 12.976 43.6458 12.368C43.6458 11.872 43.4938 11.464 43.1898 11.144C42.8858 10.824 42.5018 10.576 42.0378 10.4C41.5898 10.208 40.9658 10 40.1658 9.776C39.0778 9.456 38.1898 9.144 37.5018 8.84C36.8298 8.52 36.2458 8.048 35.7498 7.424C35.2698 6.784 35.0298 5.936 35.0298 4.88C35.0298 3.888 35.2778 3.024 35.7738 2.288C36.2698 1.552 36.9658 0.991999 37.8618 0.607999C38.7578 0.208 39.7818 0.0079999 40.9338 0.0079999C42.6618 0.0079999 44.0618 0.432 45.1338 1.28C46.2218 2.112 46.8218 3.28 46.9338 4.784H43.2378C43.2058 4.208 42.9578 3.736 42.4938 3.368C42.0458 2.984 41.4458 2.792 40.6938 2.792C40.0378 2.792 39.5098 2.96 39.1098 3.296C38.7258 3.632 38.5338 4.12 38.5338 4.76C38.5338 5.208 38.6778 5.584 38.9658 5.888C39.2698 6.176 39.6378 6.416 40.0698 6.608C40.5178 6.784 41.1418 6.992 41.9418 7.232C43.0298 7.552 43.9178 7.872 44.6058 8.192C45.2938 8.512 45.8858 8.992 46.3818 9.632C46.8778 10.272 47.1258 11.112 47.1258 12.152C47.1258 13.048 46.8938 13.88 46.4298 14.648C45.9658 15.416 45.2858 16.032 44.3898 16.496C43.4938 16.944 42.4298 17.168 41.1978 17.168ZM68.3028 0.248V17H64.9428V6.104L60.4548 17H57.9108L53.3988 6.104V17H50.0388V0.248H53.8548L59.1828 12.704L64.5108 0.248H68.3028ZM70.8088 8.6C70.8088 6.952 71.1768 5.48 71.9128 4.184C72.6648 2.872 73.6808 1.856 74.9608 1.136C76.2568 0.4 77.7048 0.0319996 79.3048 0.0319996C81.1768 0.0319996 82.8168 0.512 84.2248 1.472C85.6328 2.432 86.6168 3.76 87.1768 5.456H83.3128C82.9288 4.656 82.3848 4.056 81.6808 3.656C80.9928 3.256 80.1928 3.056 79.2808 3.056C78.3048 3.056 77.4328 3.288 76.6648 3.752C75.9128 4.2 75.3208 4.84 74.8888 5.672C74.4728 6.504 74.2648 7.48 74.2648 8.6C74.2648 9.704 74.4728 10.68 74.8888 11.528C75.3208 12.36 75.9128 13.008 76.6648 13.472C77.4328 13.92 78.3048 14.144 79.2808 14.144C80.1928 14.144 80.9928 13.944 81.6808 13.544C82.3848 13.128 82.9288 12.52 83.3128 11.72H87.1768C86.6168 13.432 85.6328 14.768 84.2248 15.728C82.8328 16.672 81.1928 17.144 79.3048 17.144C77.7048 17.144 76.2568 16.784 74.9608 16.064C73.6808 15.328 72.6648 14.312 71.9128 13.016C71.1768 11.72 70.8088 10.248 70.8088 8.6Z" fill="black"/>
</svg>
    