<svg width="75" height="9" viewBox="0 0 75 9" fill="none" xmlns="http://www.w3.org/2000/svg">
    <path d="M0.774148 5.52013L0.768466 4.4832H0.916193L2.65483 2.63661H3.67188L1.68892 4.73888H1.5554L0.774148 5.52013ZM-0.00710225 7.00024V1.18206H0.84233V7.00024H-0.00710225ZM2.74858 7.00024L1.18608 4.92638L1.77131 4.33263L3.79119 7.00024H2.74858ZM6.1044 7.08831C5.69531 7.08831 5.3383 6.99456 5.03338 6.80706C4.72846 6.61956 4.49171 6.35725 4.32315 6.02013C4.15459 5.68301 4.07031 5.28907 4.07031 4.83831C4.07031 4.38566 4.15459 3.98983 4.32315 3.65081C4.49171 3.3118 4.72846 3.04854 5.03338 2.86104C5.3383 2.67354 5.69531 2.57979 6.1044 2.57979C6.51349 2.57979 6.8705 2.67354 7.17543 2.86104C7.48035 3.04854 7.71709 3.3118 7.88565 3.65081C8.05421 3.98983 8.13849 4.38566 8.13849 4.83831C8.13849 5.28907 8.05421 5.68301 7.88565 6.02013C7.71709 6.35725 7.48035 6.61956 7.17543 6.80706C6.8705 6.99456 6.51349 7.08831 6.1044 7.08831ZM6.10724 6.37524C6.3724 6.37524 6.59209 6.30517 6.76634 6.16502C6.94058 6.02487 7.06937 5.83831 7.1527 5.60536C7.23793 5.3724 7.28054 5.11577 7.28054 4.83547C7.28054 4.55706 7.23793 4.30138 7.1527 4.06843C7.06937 3.83358 6.94058 3.64513 6.76634 3.50308C6.59209 3.36104 6.3724 3.29002 6.10724 3.29002C5.8402 3.29002 5.61861 3.36104 5.44247 3.50308C5.26823 3.64513 5.13849 3.83358 5.05327 4.06843C4.96993 4.30138 4.92827 4.55706 4.92827 4.83547C4.92827 5.11577 4.96993 5.3724 5.05327 5.60536C5.13849 5.83831 5.26823 6.02487 5.44247 6.16502C5.61861 6.30517 5.8402 6.37524 6.10724 6.37524ZM12.3565 3.70195L11.5866 3.83831C11.5545 3.73983 11.5033 3.64608 11.4332 3.55706C11.3651 3.46805 11.2723 3.39513 11.1548 3.33831C11.0374 3.28149 10.8906 3.25308 10.7145 3.25308C10.474 3.25308 10.2732 3.30706 10.1122 3.41502C9.95123 3.52108 9.87074 3.65839 9.87074 3.82695C9.87074 3.97278 9.92472 4.09021 10.0327 4.17922C10.1406 4.26824 10.3149 4.34115 10.5554 4.39797L11.2486 4.55706C11.6501 4.64987 11.9493 4.79286 12.1463 4.98604C12.3433 5.17922 12.4418 5.43017 12.4418 5.73888C12.4418 6.00024 12.366 6.2332 12.2145 6.43774C12.0649 6.6404 11.8556 6.79949 11.5866 6.91502C11.3196 7.03055 11.0099 7.08831 10.6577 7.08831C10.169 7.08831 9.77036 6.98415 9.46165 6.77581C9.15294 6.56559 8.96354 6.26729 8.89347 5.88093L9.71449 5.75593C9.76563 5.96994 9.87074 6.13187 10.0298 6.24172C10.1889 6.34968 10.3963 6.40365 10.652 6.40365C10.9304 6.40365 11.1529 6.34589 11.3196 6.23036C11.4863 6.11293 11.5696 5.96994 11.5696 5.80138C11.5696 5.66502 11.5185 5.55043 11.4162 5.45763C11.3158 5.36483 11.1615 5.29475 10.9531 5.2474L10.2145 5.08547C9.80729 4.99267 9.50616 4.84494 9.31108 4.64229C9.1179 4.43964 9.02131 4.18301 9.02131 3.8724C9.02131 3.61483 9.09328 3.38945 9.23722 3.19627C9.38116 3.00308 9.58002 2.85252 9.83381 2.74456C10.0876 2.63471 10.3783 2.57979 10.706 2.57979C11.1776 2.57979 11.5488 2.68206 11.8196 2.88661C12.0904 3.08926 12.2694 3.36104 12.3565 3.70195ZM13.3757 7.00024V2.63661H14.1911V3.34683H14.245C14.3359 3.1063 14.4846 2.9188 14.6911 2.78434C14.8975 2.64797 15.1446 2.57979 15.4325 2.57979C15.7242 2.57979 15.9685 2.64797 16.1655 2.78434C16.3643 2.9207 16.5111 3.1082 16.6058 3.34683H16.6513C16.7554 3.11388 16.9212 2.92827 17.1484 2.79002C17.3757 2.64987 17.6465 2.57979 17.9609 2.57979C18.3568 2.57979 18.6797 2.70384 18.9297 2.95195C19.1816 3.20005 19.3075 3.57411 19.3075 4.07411V7.00024H18.4581V4.15365C18.4581 3.8582 18.3776 3.64418 18.2166 3.51161C18.0556 3.37903 17.8634 3.31274 17.6399 3.31274C17.3634 3.31274 17.1484 3.39797 16.995 3.56843C16.8416 3.73699 16.7649 3.95384 16.7649 4.21899V7.00024H15.9183V4.09968C15.9183 3.86293 15.8445 3.67259 15.6967 3.52865C15.549 3.38471 15.3568 3.31274 15.12 3.31274C14.959 3.31274 14.8104 3.35536 14.674 3.44058C14.5395 3.52392 14.4306 3.6404 14.3473 3.79002C14.2659 3.93964 14.2251 4.11293 14.2251 4.3099V7.00024H13.3757ZM22.2841 7.08831C21.8617 7.08831 21.4981 6.99267 21.1932 6.80138C20.8902 6.6082 20.6572 6.3421 20.4943 6.00309C20.3314 5.66407 20.25 5.27581 20.25 4.83831C20.25 4.39513 20.3333 4.00403 20.5 3.66502C20.6667 3.32411 20.9015 3.05801 21.2045 2.86672C21.5076 2.67543 21.8646 2.57979 22.2756 2.57979C22.607 2.57979 22.9025 2.64134 23.1619 2.76445C23.4214 2.88566 23.6307 3.05612 23.7898 3.27581C23.9508 3.49551 24.0464 3.75214 24.0767 4.0457H23.25C23.2045 3.84115 23.1004 3.66502 22.9375 3.51729C22.7765 3.36956 22.5606 3.2957 22.2898 3.2957C22.053 3.2957 21.8456 3.3582 21.6676 3.4832C21.4915 3.6063 21.3542 3.78244 21.2557 4.01161C21.1572 4.23888 21.108 4.50782 21.108 4.81843C21.108 5.13661 21.1563 5.41123 21.2528 5.64229C21.3494 5.87335 21.4858 6.05233 21.6619 6.17922C21.84 6.30612 22.0492 6.36956 22.2898 6.36956C22.4508 6.36956 22.5966 6.34021 22.7273 6.28149C22.8598 6.22089 22.9706 6.13471 23.0597 6.02297C23.1506 5.91123 23.214 5.77676 23.25 5.61956H24.0767C24.0464 5.90176 23.9545 6.15365 23.8011 6.37524C23.6477 6.59684 23.4422 6.77108 23.1847 6.89797C22.929 7.02487 22.6288 7.08831 22.2841 7.08831ZM25.5447 7.05422C25.3894 7.05422 25.2559 6.9993 25.1442 6.88945C25.0324 6.77771 24.9766 6.64324 24.9766 6.48604C24.9766 6.33074 25.0324 6.19816 25.1442 6.08831C25.2559 5.97657 25.3894 5.9207 25.5447 5.9207C25.7 5.9207 25.8336 5.97657 25.9453 6.08831C26.0571 6.19816 26.1129 6.33074 26.1129 6.48604C26.1129 6.59021 26.0864 6.68585 26.0334 6.77297C25.9822 6.8582 25.9141 6.92638 25.8288 6.97752C25.7436 7.02865 25.6489 7.05422 25.5447 7.05422ZM28.5206 7.09684C28.2441 7.09684 27.9941 7.0457 27.7706 6.94343C27.5471 6.83926 27.37 6.68869 27.2393 6.49172C27.1106 6.29475 27.0462 6.05327 27.0462 5.76729C27.0462 5.52108 27.0935 5.31843 27.1882 5.15934C27.2829 5.00024 27.4107 4.8743 27.5717 4.78149C27.7327 4.68869 27.9126 4.61862 28.1115 4.57127C28.3104 4.52392 28.513 4.48793 28.7195 4.46331C28.9808 4.43301 29.1929 4.40839 29.3558 4.38945C29.5187 4.36862 29.6371 4.33547 29.7109 4.29002C29.7848 4.24456 29.8217 4.1707 29.8217 4.06843V4.04854C29.8217 3.80043 29.7517 3.6082 29.6115 3.47183C29.4732 3.33547 29.2668 3.26729 28.9922 3.26729C28.7062 3.26729 28.4808 3.33074 28.3161 3.45763C28.1532 3.58263 28.0405 3.72183 27.978 3.87524L27.1797 3.69343C27.2744 3.42827 27.4126 3.21426 27.5945 3.05138C27.7782 2.88661 27.9893 2.76729 28.228 2.69343C28.4666 2.61767 28.7176 2.57979 28.9808 2.57979C29.1551 2.57979 29.3397 2.60062 29.5348 2.64229C29.7318 2.68206 29.9155 2.75593 30.0859 2.86388C30.2583 2.97183 30.3994 3.12619 30.5092 3.32695C30.6191 3.52581 30.674 3.78434 30.674 4.10252V7.00024H29.8445V6.40365H29.8104C29.7554 6.5135 29.6731 6.62146 29.5632 6.72752C29.4534 6.83358 29.3123 6.92165 29.1399 6.99172C28.9676 7.0618 28.7611 7.09684 28.5206 7.09684ZM28.7053 6.41502C28.9401 6.41502 29.1409 6.36862 29.3075 6.27581C29.4761 6.18301 29.6039 6.0618 29.6911 5.91218C29.7801 5.76066 29.8246 5.59873 29.8246 5.42638V4.86388C29.7943 4.89418 29.7356 4.92259 29.6484 4.94911C29.5632 4.97373 29.4657 4.99551 29.3558 5.01445C29.246 5.03149 29.139 5.04759 29.0348 5.06274C28.9306 5.076 28.8435 5.08737 28.7734 5.09684C28.6087 5.11767 28.4581 5.15271 28.3217 5.20195C28.1873 5.25119 28.0793 5.32221 27.9979 5.41502C27.9183 5.50593 27.8786 5.62714 27.8786 5.77865C27.8786 5.98888 27.9562 6.14797 28.1115 6.25593C28.2668 6.36199 28.4647 6.41502 28.7053 6.41502ZM31.8054 7.00024V2.63661H32.6548V7.00024H31.8054ZM32.2344 1.96331C32.0866 1.96331 31.9598 1.91407 31.8537 1.81558C31.7495 1.71521 31.6974 1.59589 31.6974 1.45763C31.6974 1.31748 31.7495 1.19816 31.8537 1.09968C31.9598 0.999297 32.0866 0.949108 32.2344 0.949108C32.3821 0.949108 32.508 0.999297 32.6122 1.09968C32.7183 1.19816 32.7713 1.31748 32.7713 1.45763C32.7713 1.59589 32.7183 1.71521 32.6122 1.81558C32.508 1.91407 32.3821 1.96331 32.2344 1.96331ZM36.0135 0.909335L34.1385 7.87524H33.38L35.255 0.909335H36.0135ZM37.272 8.63661C37.1451 8.63661 37.0296 8.62619 36.9254 8.60536C36.8213 8.58642 36.7436 8.56559 36.6925 8.54286L36.897 7.84684C37.0523 7.8885 37.1906 7.90649 37.3118 7.90081C37.433 7.89513 37.54 7.84968 37.6328 7.76445C37.7275 7.67922 37.8108 7.54002 37.8828 7.34684L37.9879 7.05706L36.3913 2.63661H37.3004L38.4055 6.02297H38.451L39.5561 2.63661H40.468L38.6697 7.58263C38.5864 7.8099 38.4804 8.00214 38.3516 8.15934C38.2228 8.31843 38.0694 8.43774 37.8913 8.51729C37.7133 8.59684 37.5069 8.63661 37.272 8.63661ZM42.956 7.08831C42.5469 7.08831 42.1899 6.99456 41.8849 6.80706C41.58 6.61956 41.3433 6.35725 41.1747 6.02013C41.0062 5.68301 40.9219 5.28907 40.9219 4.83831C40.9219 4.38566 41.0062 3.98983 41.1747 3.65081C41.3433 3.3118 41.58 3.04854 41.8849 2.86104C42.1899 2.67354 42.5469 2.57979 42.956 2.57979C43.3651 2.57979 43.7221 2.67354 44.027 2.86104C44.3319 3.04854 44.5687 3.3118 44.7372 3.65081C44.9058 3.98983 44.9901 4.38566 44.9901 4.83831C44.9901 5.28907 44.9058 5.68301 44.7372 6.02013C44.5687 6.35725 44.3319 6.61956 44.027 6.80706C43.7221 6.99456 43.3651 7.08831 42.956 7.08831ZM42.9588 6.37524C43.224 6.37524 43.4437 6.30517 43.6179 6.16502C43.7921 6.02487 43.9209 5.83831 44.0043 5.60536C44.0895 5.3724 44.1321 5.11577 44.1321 4.83547C44.1321 4.55706 44.0895 4.30138 44.0043 4.06843C43.9209 3.83358 43.7921 3.64513 43.6179 3.50308C43.4437 3.36104 43.224 3.29002 42.9588 3.29002C42.6918 3.29002 42.4702 3.36104 42.294 3.50308C42.1198 3.64513 41.9901 3.83358 41.9048 4.06843C41.8215 4.30138 41.7798 4.55706 41.7798 4.83547C41.7798 5.11577 41.8215 5.3724 41.9048 5.60536C41.9901 5.83831 42.1198 6.02487 42.294 6.16502C42.4702 6.30517 42.6918 6.37524 42.9588 6.37524ZM48.7024 5.19059V2.63661H49.5547V7.00024H48.7195V6.24456H48.674C48.5736 6.47752 48.4126 6.67165 48.1911 6.82695C47.9714 6.98036 47.6977 7.05706 47.37 7.05706C47.0897 7.05706 46.8416 6.99551 46.6257 6.8724C46.4117 6.7474 46.2431 6.56274 46.12 6.31843C45.9988 6.07411 45.9382 5.77202 45.9382 5.41218V2.63661H46.7876V5.3099C46.7876 5.60725 46.87 5.84399 47.0348 6.02013C47.1996 6.19627 47.4136 6.28434 47.6768 6.28434C47.8359 6.28434 47.9941 6.24456 48.1513 6.16502C48.3104 6.08547 48.442 5.96521 48.5462 5.80422C48.6522 5.64324 48.7043 5.43869 48.7024 5.19059ZM50.696 7.00024V2.63661H51.517V3.32979H51.5625C51.642 3.09494 51.7822 2.91028 51.983 2.77581C52.1856 2.63945 52.4148 2.57127 52.6705 2.57127C52.7235 2.57127 52.786 2.57316 52.858 2.57695C52.9318 2.58074 52.9896 2.58547 53.0312 2.59115V3.40365C52.9972 3.39418 52.9366 3.38377 52.8494 3.3724C52.7623 3.35915 52.6752 3.35252 52.5881 3.35252C52.3873 3.35252 52.2083 3.39513 52.0511 3.48036C51.8958 3.56369 51.7727 3.68017 51.6818 3.82979C51.5909 3.97752 51.5455 4.14608 51.5455 4.33547V7.00024H50.696ZM53.8345 7.00024V1.18206H54.6839V3.34399H54.7351C54.7843 3.25308 54.8554 3.14797 54.9482 3.02865C55.041 2.90933 55.1697 2.80517 55.3345 2.71615C55.4993 2.62524 55.7171 2.57979 55.9879 2.57979C56.3402 2.57979 56.6546 2.6688 56.9311 2.84684C57.2076 3.02487 57.4245 3.28149 57.5817 3.61672C57.7408 3.95195 57.8203 4.35536 57.8203 4.82695C57.8203 5.29854 57.7417 5.7029 57.5845 6.04002C57.4273 6.37524 57.2114 6.63377 56.9368 6.81559C56.6622 6.99551 56.3487 7.08547 55.9964 7.08547C55.7313 7.08547 55.5144 7.04096 55.3459 6.95195C55.1792 6.86293 55.0485 6.75877 54.9538 6.63945C54.8591 6.52013 54.7862 6.41407 54.7351 6.32127H54.6641V7.00024H53.8345ZM54.6669 4.81843C54.6669 5.12524 54.7114 5.39418 54.8004 5.62524C54.8894 5.8563 55.0182 6.03718 55.1868 6.16786C55.3554 6.29665 55.5618 6.36104 55.8061 6.36104C56.0599 6.36104 56.272 6.2938 56.4425 6.15934C56.6129 6.02297 56.7417 5.83831 56.8288 5.60536C56.9179 5.3724 56.9624 5.11009 56.9624 4.81843C56.9624 4.53055 56.9188 4.27202 56.8317 4.04286C56.7464 3.81369 56.6177 3.63282 56.4453 3.50024C56.2749 3.36767 56.0618 3.30138 55.8061 3.30138C55.5599 3.30138 55.3516 3.36483 55.1811 3.49172C55.0125 3.61862 54.8847 3.7957 54.7976 4.02297C54.7105 4.25024 54.6669 4.5154 54.6669 4.81843ZM58.7741 7.00024V2.63661H59.5952V3.32979H59.6406C59.7202 3.09494 59.8603 2.91028 60.0611 2.77581C60.2637 2.63945 60.4929 2.57127 60.7486 2.57127C60.8016 2.57127 60.8641 2.57316 60.9361 2.57695C61.0099 2.58074 61.0677 2.58547 61.1094 2.59115V3.40365C61.0753 3.39418 61.0147 3.38377 60.9276 3.3724C60.8404 3.35915 60.7533 3.35252 60.6662 3.35252C60.4654 3.35252 60.2865 3.39513 60.1293 3.48036C59.974 3.56369 59.8509 3.68017 59.7599 3.82979C59.669 3.97752 59.6236 4.14608 59.6236 4.33547V7.00024H58.7741ZM63.0753 7.09684C62.7988 7.09684 62.5488 7.0457 62.3253 6.94343C62.1018 6.83926 61.9247 6.68869 61.794 6.49172C61.6652 6.29475 61.6009 6.05327 61.6009 5.76729C61.6009 5.52108 61.6482 5.31843 61.7429 5.15934C61.8376 5.00024 61.9654 4.8743 62.1264 4.78149C62.2874 4.68869 62.4673 4.61862 62.6662 4.57127C62.8651 4.52392 63.0677 4.48793 63.2741 4.46331C63.5355 4.43301 63.7476 4.40839 63.9105 4.38945C64.0734 4.36862 64.1918 4.33547 64.2656 4.29002C64.3395 4.24456 64.3764 4.1707 64.3764 4.06843V4.04854C64.3764 3.80043 64.3063 3.6082 64.1662 3.47183C64.0279 3.33547 63.8215 3.26729 63.5469 3.26729C63.2609 3.26729 63.0355 3.33074 62.8707 3.45763C62.7079 3.58263 62.5952 3.72183 62.5327 3.87524L61.7344 3.69343C61.8291 3.42827 61.9673 3.21426 62.1491 3.05138C62.3329 2.88661 62.544 2.76729 62.7827 2.69343C63.0213 2.61767 63.2723 2.57979 63.5355 2.57979C63.7098 2.57979 63.8944 2.60062 64.0895 2.64229C64.2865 2.68206 64.4702 2.75593 64.6406 2.86388C64.813 2.97183 64.9541 3.12619 65.0639 3.32695C65.1738 3.52581 65.2287 3.78434 65.2287 4.10252V7.00024H64.3991V6.40365H64.3651C64.3101 6.5135 64.2277 6.62146 64.1179 6.72752C64.008 6.83358 63.867 6.92165 63.6946 6.99172C63.5223 7.0618 63.3158 7.09684 63.0753 7.09684ZM63.2599 6.41502C63.4948 6.41502 63.6955 6.36862 63.8622 6.27581C64.0308 6.18301 64.1586 6.0618 64.2457 5.91218C64.3348 5.76066 64.3793 5.59873 64.3793 5.42638V4.86388C64.349 4.89418 64.2902 4.92259 64.2031 4.94911C64.1179 4.97373 64.0204 4.99551 63.9105 5.01445C63.8007 5.03149 63.6937 5.04759 63.5895 5.06274C63.4853 5.076 63.3982 5.08737 63.3281 5.09684C63.1634 5.11767 63.0128 5.15271 62.8764 5.20195C62.742 5.25119 62.634 5.32221 62.5526 5.41502C62.473 5.50593 62.4332 5.62714 62.4332 5.77865C62.4332 5.98888 62.5109 6.14797 62.6662 6.25593C62.8215 6.36199 63.0194 6.41502 63.2599 6.41502ZM67.2095 4.40933V7.00024H66.3601V2.63661H67.1754V3.34683H67.2294C67.3298 3.11577 67.487 2.93017 67.701 2.79002C67.9169 2.64987 68.1887 2.57979 68.5163 2.57979C68.8137 2.57979 69.0741 2.64229 69.2976 2.76729C69.5211 2.8904 69.6944 3.07411 69.8175 3.31843C69.9406 3.56274 70.0021 3.86483 70.0021 4.22468V7.00024H69.1527V4.32695C69.1527 4.01066 69.0703 3.7635 68.9055 3.58547C68.7408 3.40555 68.5144 3.31558 68.2266 3.31558C68.0296 3.31558 67.8544 3.3582 67.701 3.44343C67.5495 3.52865 67.4292 3.65365 67.3402 3.81843C67.2531 3.9813 67.2095 4.17827 67.2095 4.40933ZM72.7749 7.08547C72.4226 7.08547 72.1082 6.99551 71.8317 6.81559C71.5571 6.63377 71.3411 6.37524 71.1839 6.04002C71.0286 5.7029 70.951 5.29854 70.951 4.82695C70.951 4.35536 71.0296 3.95195 71.1868 3.61672C71.3459 3.28149 71.5637 3.02487 71.8402 2.84684C72.1167 2.6688 72.4302 2.57979 72.7805 2.57979C73.0514 2.57979 73.2692 2.62524 73.4339 2.71615C73.6006 2.80517 73.7294 2.90933 73.8203 3.02865C73.9131 3.14797 73.9851 3.25308 74.0362 3.34399H74.0874V1.18206H74.9368V7.00024H74.1072V6.32127H74.0362C73.9851 6.41407 73.9112 6.52013 73.8146 6.63945C73.7199 6.75877 73.5893 6.86293 73.4226 6.95195C73.2559 7.04096 73.04 7.08547 72.7749 7.08547ZM72.9624 6.36104C73.2067 6.36104 73.4131 6.29665 73.5817 6.16786C73.7521 6.03718 73.8809 5.8563 73.968 5.62524C74.0571 5.39418 74.1016 5.12524 74.1016 4.81843C74.1016 4.5154 74.058 4.25024 73.9709 4.02297C73.8838 3.7957 73.7559 3.61862 73.5874 3.49172C73.4188 3.36483 73.2105 3.30138 72.9624 3.30138C72.7067 3.30138 72.4936 3.36767 72.3232 3.50024C72.1527 3.63282 72.0239 3.81369 71.9368 4.04286C71.8516 4.27202 71.8089 4.53055 71.8089 4.81843C71.8089 5.11009 71.8525 5.3724 71.9396 5.60536C72.0268 5.83831 72.1555 6.02297 72.326 6.15934C72.4983 6.2938 72.7105 6.36104 72.9624 6.36104Z" fill="black"/>
    </svg>
    