<svg width="49" height="51" viewBox="0 0 49 51" fill="none" xmlns="http://www.w3.org/2000/svg">
    <path d="M33.6746 49.6695C33.6919 49.8164 33.6793 49.9622 33.6407 50.099C33.6077 50.2163 33.556 50.3278 33.4887 50.4274C33.3437 50.6427 33.1241 50.8157 32.8546 50.9026C32.815 50.9155 32.7746 50.9314 32.7332 50.9405C32.642 50.9603 32.5508 50.9801 32.461 50.9801C32.4488 50.9801 32.4366 51.0001 32.4244 51.0001H25.1024C24.4287 51.0001 23.8826 50.4799 23.8826 49.8381C23.8826 49.1963 24.4287 48.6761 25.1024 48.6761H30.9099L27.6876 36.0301C27.1927 34.0903 24.5766 32.4127 21.8112 32.205C20.8689 33.6317 18.9551 34.5742 16.8383 34.5742C14.7214 34.5742 12.8078 33.6395 11.8656 32.2127C9.1004 32.4205 6.48411 34.0892 5.98912 36.0288L2.76683 48.6762H8.57424C9.248 48.6762 9.79408 49.1964 9.79408 49.8382C9.79408 50.48 9.248 51.0002 8.57424 51.0002H1.25233C1.15 51.0002 1.04618 50.9734 0.942084 50.9505C0.901558 50.9418 0.861709 50.9104 0.82281 50.8977C0.553766 50.8111 0.343276 50.6412 0.198114 50.4265C0.197843 50.4259 0.206246 50.4253 0.206246 50.4249C0.0707082 50.3242 0.0770786 50.2112 0.0441428 50.0924C0.00646321 49.957 -0.0103436 49.8119 0.00659869 49.6668C0.0133756 49.6067 0.0227276 49.5442 0.0388566 49.4873L3.61964 35.444C4.42148 32.3022 8.29747 29.8256 12.4449 29.8256H12.6126C13.1336 29.8256 13.5972 30.1523 13.7663 30.6219C14.0535 31.419 15.201 32.2374 16.8384 32.2374C18.476 32.2374 19.6235 31.4228 19.9107 30.6257C20.0798 30.1562 20.5433 29.8256 21.0644 29.8256H21.232C25.38 29.8256 29.257 32.3022 30.0584 35.4441L33.6403 49.495C33.6561 49.5513 33.6678 49.6101 33.6746 49.6695ZM15.734 16.6559C15.734 16.0141 15.188 15.4939 14.5142 15.4939H13.1588C12.4851 15.4939 11.939 16.0141 11.939 16.6559C11.939 17.2978 12.4851 17.818 13.1588 17.818H14.5142C15.188 17.818 15.734 17.2978 15.734 16.6559ZM19.1628 17.818H20.5183C21.192 17.818 21.7381 17.2978 21.7381 16.6559C21.7381 16.0141 21.192 15.4939 20.5183 15.4939H19.1628C18.489 15.4939 17.9429 16.0141 17.9429 16.6559C17.9429 17.2978 18.489 17.818 19.1628 17.818ZM7.23743 19.3152C7.59091 19.3704 7.92881 19.2758 8.20219 19.0551C8.47557 18.8343 8.60948 18.5101 8.60948 18.1688V15.9448C8.60948 11.667 12.2889 8.18684 16.7795 8.18684C16.9977 8.18684 17.227 8.19498 17.4409 8.21111C16.3104 9.88288 14.6736 11.0911 12.8235 11.5841C12.1747 11.757 11.7991 12.3981 11.9806 13.0162C12.1621 13.6343 12.8375 13.9959 13.4856 13.8221C16.1633 13.1088 18.4925 11.2827 19.9337 8.78218C22.8758 9.95286 24.9493 12.7226 24.9493 15.9448C24.9493 19.2665 22.7563 22.1549 19.528 23.2392C19.1441 22.9305 18.6485 22.7243 18.108 22.7243H15.5034C14.2874 22.7243 13.2983 23.6964 13.2983 24.8547C13.2983 26.013 14.2874 26.9851 15.5034 26.9851H18.108C19.0942 26.9851 19.9313 26.3552 20.2122 25.5028C23.3559 24.4904 25.7383 22.15 26.788 19.2467C28.2049 18.919 29.0756 18.078 29.0756 17.0475V14.4718C29.0756 13.4024 28.1366 12.5425 26.6262 12.2428C25.0737 8.50988 21.2579 5.86279 16.7933 5.86279C12.3227 5.86279 8.4921 8.5166 6.94385 12.2574C5.47489 12.5697 4.5432 13.4193 4.5432 14.4717V17.0474C4.54347 18.1668 5.60378 19.0569 7.23743 19.3152ZM36.7812 11.7496C37.455 11.7496 38.0011 11.2294 38.0011 10.5876C38.0011 9.94576 37.455 9.42556 36.7812 9.42556H36.6796C36.0058 9.42556 35.4597 9.94576 35.4597 10.5876C35.4597 11.2294 36.0058 11.7496 36.6796 11.7496H36.7812ZM41.0207 11.7496C41.6945 11.7496 42.2406 11.2294 42.2406 10.5876C42.2406 9.94576 41.6945 9.42556 41.0207 9.42556H40.9192C40.2455 9.42556 39.6994 9.94576 39.6994 10.5876C39.6994 11.2294 40.2455 11.7496 40.9192 11.7496H41.0207ZM43.834 0.000244141H29.6268C26.7433 0.000244141 24.3972 2.25548 24.3972 5.00238C24.3972 5.6442 24.9433 6.1746 25.6171 6.1746C26.2908 6.1746 26.8369 5.63904 26.8369 4.99721C26.8369 3.53177 28.0885 2.32417 29.6268 2.32417H43.834C45.3723 2.32417 46.5603 3.55733 46.5603 5.02265V16.2384C46.5603 17.704 45.3722 18.8506 43.834 18.8506H31.9448C31.5608 18.8506 31.1992 19.0456 30.9688 19.3384L26.9554 24.4496C26.5513 24.9631 26.6607 25.6971 27.1998 26.0822C27.4192 26.2389 27.6759 26.3174 27.9306 26.3174C28.3016 26.3174 28.6679 26.1355 28.9075 25.8309L32.5549 21.1749H43.834C46.7175 21.1749 49 18.9855 49 16.2386V5.02278C49 2.27588 46.7175 0.000244141 43.834 0.000244141ZM32.5417 11.7496C33.2155 11.7496 33.7616 11.2294 33.7616 10.5876C33.7616 9.94576 33.2155 9.42556 32.5417 9.42556H32.4401C31.7663 9.42556 31.2202 9.94576 31.2202 10.5876C31.2202 11.2294 31.7663 11.7496 32.4401 11.7496H32.5417Z" fill="white"/>
    </svg>
    